<?xml version="1.0" encoding="UTF-8" standalone="no"?>
<!-- Generator: Adobe Illustrator 18.0.0, SVG Export Plug-In . SVG Version: 6.00 Build 0)  -->

<svg
   xmlns:dc="http://purl.org/dc/elements/1.1/"
   xmlns:cc="http://creativecommons.org/ns#"
   xmlns:rdf="http://www.w3.org/1999/02/22-rdf-syntax-ns#"
   xmlns:svg="http://www.w3.org/2000/svg"
   xmlns="http://www.w3.org/2000/svg"
   xmlns:sodipodi="http://sodipodi.sourceforge.net/DTD/sodipodi-0.dtd"
   xmlns:inkscape="http://www.inkscape.org/namespaces/inkscape"
   version="1.1"
   id="Layer_1"
   x="0px"
   y="0px"
   viewBox="0 0 344 460"
   enable-background="new 0 0 344 460"
   xml:space="preserve"
   inkscape:version="0.48.3.1 r9886"
   width="100%"
   height="100%"
   sodipodi:docname="beerjs.svg"><metadata
   id="metadata3075"><rdf:RDF><cc:Work
       rdf:about=""><dc:format>image/svg+xml</dc:format><dc:type
         rdf:resource="http://purl.org/dc/dcmitype/StillImage" /><dc:title></dc:title></cc:Work></rdf:RDF></metadata><defs
   id="defs3073">
	
	

		
		
		
		
		
	</defs><sodipodi:namedview
   pagecolor="#ffffff"
   bordercolor="#666666"
   borderopacity="1"
   objecttolerance="10"
   gridtolerance="10"
   guidetolerance="10"
   inkscape:pageopacity="0"
   inkscape:pageshadow="2"
   inkscape:window-width="1360"
   inkscape:window-height="741"
   id="namedview3071"
   showgrid="false"
   inkscape:zoom="0.61847826"
   inkscape:cx="-116.59"
   inkscape:cy="295.54812"
   inkscape:window-x="0"
   inkscape:window-y="21"
   inkscape:window-maximized="0"
   inkscape:current-layer="Layer_1" />
<path
   d="m 338.2,57.2 c 0.1,-0.6 0.2,-1.2 0.2,-1.8 C 338.4,35.1 260.9,5.5 174.2,5.5 87.5,5.5 5.6,33.6 5.6,53.9 c 0,0.6 0.1,1.2 0.2,1.8 l 47.8,334.4 h 0.1 c 0,0.5 -0.1,1 -0.1,1.5 0,34.8 54,63 120.6,63 66.6,0 120.6,-28.2 120.6,-63 0,-0.5 -0.1,-1 -0.1,-1.5 h 0.1 L 338.2,57.2 z"
   id="path3055"
   inkscape:connector-curvature="0"
   style="fill:#b5cde3" />
<path
   style="fill:#b5cde3;fill-opacity:1"
   d="m 135.9472,438.29305 c 0.003,-1.54236 0.99762,-23.41595 2.20849,-48.60799 2.08349,-43.34656 2.13345,-45.92243 0.93125,-48.01715 -1.18919,-2.07202 -1.19008,-2.27508 -0.0141,-3.17793 1.08538,-0.83324 1.32733,-3.35745 1.77816,-18.55127 0.46755,-15.7568 0.39483,-17.69221 -0.69885,-18.59989 -1.47834,-1.22692 -1.61014,-4.25957 -0.20848,-4.79743 0.68167,-0.26158 1.16711,-2.42451 1.48652,-6.62335 0.26088,-3.42921 0.79779,-9.9366 1.19314,-14.46086 0.39536,-4.52426 0.73596,-14.36732 0.75691,-21.87347 0.0353,-12.65765 -0.0596,-13.64756 -1.30799,-13.64756 -2.81479,0 -3.14081,-1.40448 -3.14081,-13.53014 0,-9.97085 0.17642,-11.80311 1.17328,-12.18565 0.76859,-0.29493 1.01287,-0.95562 0.70824,-1.91544 -0.26547,-0.83641 0.0713,-2.28379 0.78471,-3.37258 0.78567,-1.1991 1.00425,-2.25307 0.58863,-2.83839 -0.36363,-0.51205 -0.6105,-1.43578 -0.54863,-2.05272 0.0618,-0.61695 0.15132,-1.5816 0.19876,-2.14367 0.057,-0.67492 0.72108,-0.90058 1.95579,-0.66456 l 1.86953,0.35739 0,-12.36903 c 0,-7.93364 -0.33098,-13.28432 -0.92296,-14.92145 -0.815,-2.25384 -0.76196,-2.67012 0.45349,-3.55887 1.16756,-0.85376 1.33601,-1.8363 1.10992,-6.47445 -0.17148,-3.51772 0.0992,-6.33476 0.75894,-7.89833 1.15045,-2.72643 2.3397,-3.20158 2.3397,-0.93475 0,0.82258 0.33651,1.49562 0.74781,1.49562 1.09975,0 0.91159,-2.001 -0.43257,-4.60032 -1.10874,-2.14405 -1.08905,-2.38011 0.32431,-3.88887 1.05132,-1.12229 1.30411,-1.96306 0.83899,-2.79043 -0.38973,-0.69328 -0.38404,-3.94828 0.0137,-7.85202 0.3737,-3.66732 0.8795,-11.20964 1.12399,-16.7607 0.24449,-5.55106 0.76539,-10.41371 1.15755,-10.80587 1.27715,-1.27716 2.28522,0.72153 2.3761,4.7111 0.0918,4.03177 0.25212,4.2721 2.07598,3.1129 1.42709,-0.90702 1.44815,-13.18834 0.034,-19.800338 -0.69164,-3.233751 -0.72455,-4.534571 -0.11983,-4.736141 0.45853,-0.152843 0.84118,-0.838761 0.85033,-1.524249 0.009,-0.685496 0.63585,-2.051723 1.3927,-3.03607 1.3169,-1.712763 1.24132,-5.084061 -0.16502,-7.359552 -0.24672,-0.399215 0.0347,-1.364321 0.62538,-2.144682 0.59069,-0.780361 1.08468,-2.344255 1.09778,-3.475319 0.0144,-1.247862 0.43337,-2.05648 1.06547,-2.05648 1.21415,0 2.06958,1.808297 1.5258,3.22538 -0.50278,1.310208 2.16217,3.651768 3.55,3.119211 0.6045,-0.231973 1.70166,-1.787487 2.43812,-3.456697 1.06601,-2.416175 1.16888,-3.40827 0.50465,-4.866126 -1.24146,-2.724695 -1.0175,-4.538985 0.70965,-5.748721 3.17678,-2.225099 7.36274,1.528566 5.33158,4.78097 -0.49122,0.786536 -0.8931,1.826328 -0.8931,2.310651 0,1.692354 2.51428,6.56174 3.60405,6.979923 1.38782,0.532557 4.05277,-1.809003 3.55,-3.119211 -0.54378,-1.417083 0.31164,-3.22538 1.52579,-3.22538 0.6321,0 1.05107,0.808618 1.06549,2.05648 0.013,1.131064 0.50707,2.694958 1.09776,3.475319 0.59069,0.780361 0.87212,1.745467 0.62539,2.144682 -0.24674,0.399214 -0.71475,1.90591 -1.04004,3.348211 -0.47304,2.097378 -0.30358,2.931355 0.84646,4.165764 0.79084,0.848871 1.43788,2.085677 1.43788,2.748455 0,0.662779 0.34548,1.550524 0.76774,1.972774 0.52508,0.525086 0.48562,2.04949 -0.12489,4.823388 -1.36231,6.189848 -1.29565,18.507558 0.10497,19.397758 1.82387,1.1592 1.98415,0.91887 2.07598,-3.1129 0.0483,-2.11679 0.41281,-4.17386 0.81022,-4.57127 1.12868,-1.12867 2.28707,0.0381 2.25845,2.27491 -0.0441,3.44774 0.89845,18.89261 1.5616,25.58818 0.34626,3.49602 0.34738,6.86118 0.003,7.47812 -0.41786,0.74747 -0.12503,1.65763 0.87763,2.72798 1.41336,1.50876 1.43305,1.74482 0.32432,3.88887 -1.30432,2.52227 -1.53912,4.60032 -0.51979,4.60032 0.36332,0 0.8769,-0.75716 1.14127,-1.68258 0.45226,-1.5831 0.55895,-1.52741 1.80439,0.94202 1.02136,2.02511 1.25246,3.88567 1.01174,8.14559 -0.25601,4.53087 -0.0946,5.64267 0.90017,6.19936 1.34158,0.75078 1.63354,3.24655 0.46432,3.96916 -0.45363,0.28036 -0.74781,5.74575 -0.74781,13.89289 l 0,13.43071 1.83698,-0.46104 c 1.51804,-0.381 1.9186,-0.1359 2.30703,1.41171 0.25851,1.03002 0.0781,2.60515 -0.40097,3.50027 -0.70684,1.32074 -0.63565,1.88754 0.37772,3.0073 0.78825,0.87101 1.06698,1.95245 0.75586,2.93271 -0.33455,1.05407 -0.11598,1.69753 0.68041,2.00313 1.74583,0.66995 1.74416,22.79464 -0.002,24.54066 -0.64633,0.64633 -1.65587,1.17513 -2.24344,1.17513 -0.88904,0 -1.06283,2.35287 -1.0357,14.02146 0.018,7.7118 0.36101,17.55487 0.76241,21.87347 0.4014,4.31862 0.94078,10.65775 1.19862,14.08696 0.31603,4.20306 0.79865,6.36151 1.48102,6.62335 1.42576,0.54712 1.26264,3.91831 -0.21709,4.48613 -1.11359,0.42733 -1.18045,2.16691 -0.71046,18.48485 0.45135,15.67026 0.68376,18.13857 1.78676,18.97761 1.19171,0.90649 1.19116,1.09827 -0.009,3.18969 -1.3469,2.34684 -1.27077,4.83134 2.40491,78.47896 0.40029,8.02027 0.73245,16.0125 0.73815,17.76052 l 0.0102,3.17819 -37.39056,0 -37.39055,0 0.007,-2.80429 z m 42.05745,-122.73048 c 0.30848,-0.0536 0.56086,-1.91233 0.56086,-4.13044 0,-3.01097 -0.30391,-4.14959 -1.19929,-4.49317 -0.65963,-0.25312 -1.01615,-0.93755 -0.79227,-1.52097 0.64025,-1.66848 -1.41028,-2.8586 -3.96029,-2.29852 -1.58626,0.3484 -2.27407,0.94094 -2.27407,1.95913 0,0.80283 -0.50477,1.65338 -1.12171,1.89012 -1.74093,0.66805 -1.5759,8.29748 0.18695,8.64374 1.17463,0.23073 7.18605,0.19585 8.59982,-0.0499 z m -1.28835,-41.2271 c 2.81806,0 3.28327,-0.24463 3.91092,-2.05649 1.1676,-3.37049 0.47224,-24.13584 -0.89609,-26.75998 -0.63602,-1.21973 -1.15847,-2.61847 -1.16101,-3.10832 -0.007,-1.2534 -1.32572,-1.92306 -2.43499,-1.23603 -0.51412,0.31842 -2.42158,0.59229 -4.2388,0.6086 -2.99996,0.0268 -3.37051,0.23576 -4.02641,2.26947 -0.39732,1.23191 -1.04655,2.65037 -1.44272,3.15213 -0.93758,1.18747 -0.74507,23.68364 0.2055,24.01473 0.39361,0.1371 0.71565,0.6587 0.71565,1.15911 0,1.72762 1.8305,2.81166 4.01948,2.38038 1.18248,-0.23298 3.58929,-0.4236 5.34847,-0.4236 z m -0.88862,-111.37805 c 7.98787,-3.03697 5.73084,-12.7586 -2.96211,-12.7586 -4.98065,0 -7.55513,2.87717 -7.02599,7.85202 0.21643,2.03488 1.4561,3.40866 4.12581,4.57219 2.73292,1.19105 3.49481,1.23451 5.86229,0.33439 z m 1.43905,-58.99481 c -0.0772,-5.875998 -1.14983,-7.693163 -4.3098,-7.301662 -3.6435,0.4514 -3.91547,0.963084 -3.85244,7.247632 l 0.0598,5.97351 4.08719,-0.21948 4.08718,-0.2195 -0.072,-5.4805 z"
   id="path3168"
   inkscape:connector-curvature="0" /><path
   style="fill:#fbde34;opacity:1"
   inkscape:connector-curvature="0"
   id="path3990"
   d="M 58.2,196.6 84,387.5 c 0,0 7.8,13.9 12.1,16.2 12.9,6.7 38.1,18.6 78.2,17.9 53.5,-0.9 85.3,-20.3 85.3,-20.3 l 8.6,-13.4 25.1,-199.6 -235.1,8.3 z" /><path
   d="M 58.2,196.6 84,387.5 c 0,0 7.8,13.9 12.1,16.2 12.9,6.7 38.1,18.6 78.2,17.9 53.5,-0.9 85.3,-20.3 85.3,-20.3 l 8.6,-13.4 25.1,-199.6 -235.1,8.3 z"
   id="path3057"
   inkscape:connector-curvature="0"
   style="fill:#fbde34;opacity:1" /><path
   d="M 47.2,102.6 C 50.9,95.7 57.3,86.2 64.7,81.7 72.1,77.2 118.3,62.4 178.2,62.9 238,63.4 285,80.5 291.9,88.1 c 6.9,7.6 12.5,22.3 12.5,22.3 l -11.1,77.9 c 0,0 -10.6,7.3 -22.8,11.3 -12.2,4 -46.4,0.8 -56.5,5.2 -10.1,4.3 -38.7,19.8 -38.7,19.8 0,0 -25.9,20.7 -53.2,14.7 -17.3,-3.7 -35.1,-34.7 -47.3,-35.6 -9.5,-0.7 -15.6,-3.9 -15.6,-3.9 0,0 -15.7,-90.3 -12,-97.2 z"
   id="path3059"
   inkscape:connector-curvature="0"
   style="fill:#ffffff" /><path
   style="fill:#b5cde3;fill-opacity:1"
   d="m 134.81288,439.63952 c 0.003,-1.54236 0.99762,-23.41595 2.20849,-48.60799 2.08349,-43.34656 2.13345,-45.92243 0.93125,-48.01715 -1.18919,-2.07202 -1.19008,-2.27508 -0.0141,-3.17793 1.08538,-0.83324 1.32733,-3.35745 1.77816,-18.55127 0.46755,-15.7568 0.39483,-17.69221 -0.69885,-18.59989 -1.47834,-1.22692 -1.61014,-4.25957 -0.20848,-4.79743 0.68167,-0.26158 1.16711,-2.42451 1.48652,-6.62335 0.26088,-3.42921 0.79779,-9.9366 1.19314,-14.46086 0.39536,-4.52426 0.73596,-14.36732 0.75691,-21.87347 0.0353,-12.65765 -0.0596,-13.64756 -1.30799,-13.64756 -2.81479,0 -3.14081,-1.40448 -3.14081,-13.53014 0,-9.97085 0.17642,-11.80311 1.17328,-12.18565 0.76859,-0.29493 1.01287,-0.95562 0.70824,-1.91544 -0.26547,-0.83641 0.0713,-2.28379 0.78471,-3.37258 0.78567,-1.1991 1.00425,-2.25307 0.58863,-2.83839 -0.36363,-0.51205 -0.6105,-1.43578 -0.54863,-2.05272 0.0618,-0.61695 0.15132,-1.5816 0.19876,-2.14367 0.057,-0.67492 0.72108,-0.90058 1.95579,-0.66456 l 1.86953,0.35739 0,-12.36903 c 0,-7.93364 -0.33098,-13.28432 -0.92296,-14.92145 -0.815,-2.25384 -0.76196,-2.67012 0.45349,-3.55887 1.16756,-0.85376 1.33601,-1.8363 1.10992,-6.47445 -0.17148,-3.51772 0.0992,-6.33476 0.75894,-7.89833 1.15045,-2.72643 2.3397,-3.20158 2.3397,-0.93475 0,0.82258 0.33651,1.49562 0.74781,1.49562 1.09975,0 0.91159,-2.001 -0.43257,-4.60032 -1.10874,-2.14405 -1.08905,-2.38011 0.32431,-3.88887 1.05132,-1.12229 1.30411,-1.96306 0.83899,-2.79043 -0.38973,-0.69328 -0.38404,-3.94828 0.0137,-7.85202 0.3737,-3.66732 0.8795,-11.20964 1.12399,-16.7607 0.24449,-5.55106 0.76539,-10.41371 1.15755,-10.80587 1.27715,-1.27716 2.28522,0.72153 2.3761,4.7111 0.0918,4.03177 0.25212,4.2721 2.07598,3.1129 1.42709,-0.90702 1.44815,-13.18834 0.034,-19.800338 -0.69164,-3.233751 -0.72455,-4.534571 -0.11983,-4.736141 0.45853,-0.152843 0.84118,-0.838761 0.85033,-1.524249 0.009,-0.685496 0.63585,-2.051723 1.3927,-3.03607 1.3169,-1.712763 1.24132,-5.084061 -0.16502,-7.359552 -0.24672,-0.399215 0.0347,-1.364321 0.62538,-2.144682 0.59069,-0.780361 1.08468,-2.344255 1.09778,-3.475319 0.0144,-1.247861 0.43337,-2.056479 1.06547,-2.056479 1.21415,0 2.06958,1.808296 1.5258,3.225379 -0.50278,1.310208 2.16217,3.651768 3.55,3.119211 0.6045,-0.231973 1.70166,-1.787487 2.43812,-3.456697 1.06601,-2.416174 1.16888,-3.408269 0.50465,-4.866125 -1.24146,-2.724695 -1.0175,-4.538985 0.70965,-5.748721 3.17678,-2.225099 7.36274,1.528566 5.33158,4.78097 -0.49122,0.786536 -0.8931,1.826328 -0.8931,2.310651 0,1.692354 2.51428,6.561739 3.60405,6.979922 1.38782,0.532557 4.05277,-1.809003 3.55,-3.119211 -0.54378,-1.417083 0.31164,-3.225379 1.52579,-3.225379 0.6321,0 1.05107,0.808618 1.06549,2.056479 0.013,1.131064 0.50707,2.694958 1.09776,3.475319 0.59069,0.780361 0.87212,1.745467 0.62539,2.144682 -0.24674,0.399214 -0.71475,1.90591 -1.04004,3.348211 -0.47304,2.097378 -0.30358,2.931355 0.84646,4.165764 0.79084,0.848871 1.43788,2.085677 1.43788,2.748455 0,0.662779 0.34548,1.550524 0.76774,1.972774 0.52508,0.525086 0.48562,2.04949 -0.12489,4.823386 -1.36231,6.18985 -1.29565,18.50756 0.10497,19.39776 1.82387,1.1592 1.98415,0.91887 2.07598,-3.1129 0.0483,-2.11679 0.41281,-4.17386 0.81022,-4.57127 1.12868,-1.12867 2.28707,0.0381 2.25845,2.27491 -0.0441,3.44774 0.89845,18.89261 1.5616,25.58818 0.34626,3.49602 0.34738,6.86118 0.003,7.47812 -0.41786,0.74747 -0.12503,1.65763 0.87763,2.72798 1.41336,1.50876 1.43305,1.74482 0.32432,3.88887 -1.30432,2.52227 -1.53912,4.60032 -0.51979,4.60032 0.36332,0 0.8769,-0.75716 1.14127,-1.68258 0.45226,-1.5831 0.55895,-1.52741 1.80439,0.94202 1.02136,2.02511 1.25246,3.88567 1.01174,8.14559 -0.25601,4.53087 -0.0946,5.64267 0.90017,6.19936 1.34158,0.75078 1.63354,3.24655 0.46432,3.96916 -0.45363,0.28036 -0.74781,5.74575 -0.74781,13.89289 l 0,13.43071 1.83698,-0.46104 c 1.51804,-0.381 1.9186,-0.1359 2.30703,1.41171 0.25851,1.03002 0.0781,2.60515 -0.40097,3.50027 -0.70684,1.32074 -0.63565,1.88754 0.37772,3.0073 0.78825,0.87101 1.06698,1.95245 0.75586,2.93271 -0.33455,1.05407 -0.11598,1.69753 0.68041,2.00313 1.74583,0.66995 1.74416,22.79464 -0.002,24.54066 -0.64633,0.64633 -1.65587,1.17513 -2.24344,1.17513 -0.88904,0 -1.06283,2.35287 -1.0357,14.02146 0.018,7.7118 0.36101,17.55487 0.76241,21.87347 0.4014,4.31862 0.94078,10.65775 1.19862,14.08696 0.31603,4.20306 0.79865,6.36151 1.48102,6.62335 1.42576,0.54712 1.26264,3.91831 -0.21709,4.48613 -1.11359,0.42733 -1.18045,2.16691 -0.71046,18.48485 0.45135,15.67026 0.68376,18.13857 1.78676,18.97761 1.19171,0.90649 1.19116,1.09827 -0.009,3.18969 -1.3469,2.34684 -1.27077,4.83134 2.40491,78.47896 0.40029,8.02027 0.73245,16.0125 0.73815,17.76052 l 0.0102,3.17819 -37.39056,0 -37.39055,0 0.007,-2.80429 z m 42.05745,-122.73048 c 0.30848,-0.0536 0.56086,-1.91233 0.56086,-4.13044 0,-3.01097 -0.30391,-4.14959 -1.19929,-4.49317 -0.65963,-0.25312 -1.01615,-0.93755 -0.79227,-1.52097 0.64025,-1.66848 -1.41028,-2.8586 -3.96029,-2.29852 -1.58626,0.3484 -2.27407,0.94094 -2.27407,1.95913 0,0.80283 -0.50477,1.65338 -1.12171,1.89012 -1.74093,0.66805 -1.5759,8.29748 0.18695,8.64374 1.17463,0.23073 7.18605,0.19585 8.59982,-0.0499 z m -1.28835,-41.2271 c 2.81806,0 3.28327,-0.24463 3.91092,-2.05649 1.1676,-3.37049 0.47224,-24.13584 -0.89609,-26.75998 -0.63602,-1.21973 -1.15847,-2.61847 -1.16101,-3.10832 -0.007,-1.2534 -1.32572,-1.92306 -2.43499,-1.23603 -0.51412,0.31842 -2.42158,0.59229 -4.2388,0.6086 -2.99996,0.0268 -3.37051,0.23576 -4.02641,2.26947 -0.39732,1.23191 -1.04655,2.65037 -1.44272,3.15213 -0.93758,1.18747 -0.74507,23.68364 0.2055,24.01473 0.39361,0.1371 0.71565,0.6587 0.71565,1.15911 0,1.72762 1.8305,2.81166 4.01948,2.38038 1.18248,-0.23298 3.58929,-0.4236 5.34847,-0.4236 z m -0.88862,-111.37805 c 7.98787,-3.03697 5.73084,-12.7586 -2.96211,-12.7586 -4.98065,0 -7.55513,2.87717 -7.02599,7.85202 0.21643,2.03488 1.4561,3.40866 4.12581,4.57219 2.73292,1.19105 3.49481,1.23451 5.86229,0.33439 z m 1.43905,-58.99481 c -0.0772,-5.875998 -1.14983,-7.693163 -4.3098,-7.301662 -3.6435,0.4514 -3.91547,0.963084 -3.85244,7.247632 l 0.0598,5.97351 4.08719,-0.21948 4.08718,-0.2195 -0.072,-5.4805 z"
   id="path3168-4"
   inkscape:connector-curvature="0" /><g
   id="g3065">
		<path
   style="fill:#343433"
   inkscape:connector-curvature="0"
   id="path3067"
   d="m 90.3,380.6 19,-11.5 c 3.7,6.5 7,12 15,12 7.7,0 12.5,-3 12.5,-14.6 V 287.3 H 160 v 79.5 c 0,24.1 -14.1,35.1 -34.8,35.1 -18.6,0 -29.4,-9.7 -34.9,-21.3" />
		<path
   style="fill:#343433"
   inkscape:connector-curvature="0"
   id="path3069"
   d="m 172.7,378.1 19,-11 c 5,8.2 11.5,14.1 23,14.1 9.6,0 15.8,-4.8 15.8,-11.5 0,-8 -6.3,-10.8 -17,-15.5 l -5.8,-2.5 c -16.8,-7.1 -27.9,-16.1 -27.9,-35.1 0,-17.5 13.3,-30.8 34.1,-30.8 14.8,0 25.5,5.2 33.1,18.6 L 228.9,316 c -4,-7.1 -8.3,-10 -15,-10 -6.8,0 -11.1,4.3 -11.1,10 0,7 4.3,9.8 14.3,14.1 l 5.8,2.5 c 19.8,8.5 30.9,17.1 30.9,36.6 0,21 -16.5,32.4 -38.6,32.4 -21.7,0.3 -35.7,-10 -42.5,-23.5" />
	</g><path
   d="m 126.6,269.1 c 0,11 -11.3,19.9 -25.2,19.9 -13.9,0 -25.2,-8.9 -25.2,-19.9 0,-11 11.3,-19.9 25.2,-19.9 14,0.1 25.2,8.9 25.2,19.9 z"
   id="path3061"
   inkscape:connector-curvature="0"
   style="fill:#ffffff" /><path
   d="m 121.3,294.8 c 0,5.6 -5.6,10.2 -12.6,10.2 -7,0 -12.6,-4.6 -12.6,-10.2 0,-5.6 5.6,-10.2 12.6,-10.2 7,0 12.6,4.6 12.6,10.2 z"
   id="path3063"
   inkscape:connector-curvature="0"
   style="fill:#ffffff" /></svg>